<svg width="21" height="20" viewBox="0 0 21 20" fill="none" xmlns="http://www.w3.org/2000/svg">
<path fill-rule="evenodd" clip-rule="evenodd" d="M9.42397 2.65829C9.48153 2.47575 9.59578 2.31632 9.75014 2.20315C9.90449 2.08998 10.0909 2.02896 10.2823 2.02896C10.4737 2.02896 10.6601 2.08998 10.8145 2.20315C10.9688 2.31632 11.0831 2.47575 11.1406 2.65829L12.6906 7.42495H17.6906C17.8889 7.41746 18.0841 7.47507 18.2465 7.58899C18.409 7.7029 18.5296 7.86686 18.5901 8.0558C18.6505 8.24474 18.6475 8.44829 18.5814 8.63533C18.5153 8.82238 18.3897 8.98263 18.224 9.09162L14.1656 12.0333L15.7156 16.8083C15.7769 16.9902 15.7785 17.1869 15.72 17.3697C15.6616 17.5526 15.5463 17.7119 15.3908 17.8245C15.2354 17.9371 15.048 17.9971 14.8561 17.9957C14.6642 17.9943 14.4777 17.9315 14.324 17.8166L10.2573 14.8416L6.19897 17.7916C6.04522 17.9065 5.85877 17.9693 5.66684 17.9707C5.4749 17.9721 5.28754 17.9121 5.13211 17.7995C4.97668 17.6869 4.86133 17.5276 4.80289 17.3447C4.74445 17.1619 4.746 16.9652 4.8073 16.7833L6.3573 12.0083L2.29897 9.06662C2.1332 8.95763 2.00768 8.79738 1.94157 8.61033C1.87546 8.42329 1.8724 8.21975 1.93286 8.0308C1.99333 7.84186 2.11398 7.6779 2.2764 7.56399C2.43881 7.45007 2.63406 7.39246 2.8323 7.39995H7.8323L9.42397 2.65829Z" stroke="#EBEBEB" stroke-width="1.5" stroke-linecap="round" stroke-linejoin="round"/>
</svg>
