<svg xmlns="http://www.w3.org/2000/svg" xmlns:xlink="http://www.w3.org/1999/xlink" version="1.1" width="256" height="256" viewBox="0 0 256 256" xml:space="preserve">

<defs>
</defs>
<g style="stroke: none; stroke-width: 0; stroke-dasharray: none; stroke-linecap: butt; stroke-linejoin: miter; stroke-miterlimit: 10; fill: none; fill-rule: nonzero; opacity: 1;" transform="translate(1.4065934065934016 1.4065934065934016) scale(2.81 2.81)" >
	<path d="M 86 77.409 H 54.645 c -2.209 0 -4 -1.791 -4 -4 s 1.791 -4 4 -4 H 86 c 2.209 0 4 1.791 4 4 S 88.209 77.409 86 77.409 z" style="stroke: none; stroke-width: 1; stroke-dasharray: none; stroke-linecap: butt; stroke-linejoin: miter; stroke-miterlimit: 10; fill: rgb(0,0,0); fill-rule: nonzero; opacity: 1;" transform=" matrix(1 0 0 1 0 0) " stroke-linecap="round" />
	<path d="M 53.897 20.591 H 4 c -2.209 0 -4 -1.791 -4 -4 s 1.791 -4 4 -4 h 49.897 c 2.209 0 4 1.791 4 4 S 56.106 20.591 53.897 20.591 z" style="stroke: none; stroke-width: 1; stroke-dasharray: none; stroke-linecap: butt; stroke-linejoin: miter; stroke-miterlimit: 10; fill: rgb(0,0,0); fill-rule: nonzero; opacity: 1;" transform=" matrix(1 0 0 1 0 0) " stroke-linecap="round" />
	<path d="M 86 49 H 31.428 c -2.209 0 -4 -1.791 -4 -4 s 1.791 -4 4 -4 H 86 c 2.209 0 4 1.791 4 4 S 88.209 49 86 49 z" style="stroke: none; stroke-width: 1; stroke-dasharray: none; stroke-linecap: butt; stroke-linejoin: miter; stroke-miterlimit: 10; fill: rgb(0,0,0); fill-rule: nonzero; opacity: 1;" transform=" matrix(1 0 0 1 0 0) " stroke-linecap="round" />
	<path d="M 36.102 77.409 H 4 c -2.209 0 -4 -1.791 -4 -4 s 1.791 -4 4 -4 h 32.102 c 2.209 0 4 1.791 4 4 S 38.311 77.409 36.102 77.409 z" style="stroke: none; stroke-width: 1; stroke-dasharray: none; stroke-linecap: butt; stroke-linejoin: miter; stroke-miterlimit: 10; fill: rgb(0,0,0); fill-rule: nonzero; opacity: 1;" transform=" matrix(1 0 0 1 0 0) " stroke-linecap="round" />
	<path d="M 13.633 49 H 4 c -2.209 0 -4 -1.791 -4 -4 s 1.791 -4 4 -4 h 9.633 c 2.209 0 4 1.791 4 4 S 15.842 49 13.633 49 z" style="stroke: none; stroke-width: 1; stroke-dasharray: none; stroke-linecap: butt; stroke-linejoin: miter; stroke-miterlimit: 10; fill: rgb(0,0,0); fill-rule: nonzero; opacity: 1;" transform=" matrix(1 0 0 1 0 0) " stroke-linecap="round" />
	<path d="M 86 20.591 H 71.866 c -2.209 0 -4 -1.791 -4 -4 s 1.791 -4 4 -4 H 86 c 2.209 0 4 1.791 4 4 S 88.209 20.591 86 20.591 z" style="stroke: none; stroke-width: 1; stroke-dasharray: none; stroke-linecap: butt; stroke-linejoin: miter; stroke-miterlimit: 10; fill: rgb(0,0,0); fill-rule: nonzero; opacity: 1;" transform=" matrix(1 0 0 1 0 0) " stroke-linecap="round" />
	<path d="M 50.47 82.307 H 39.53 c -1.893 0 -3.428 -1.535 -3.428 -3.428 v -10.94 c 0 -1.893 1.535 -3.428 3.428 -3.428 h 10.94 c 1.893 0 3.428 1.535 3.428 3.428 v 10.94 C 53.898 80.772 52.363 82.307 50.47 82.307 z" style="stroke: none; stroke-width: 1; stroke-dasharray: none; stroke-linecap: butt; stroke-linejoin: miter; stroke-miterlimit: 10; fill: rgb(0,0,0); fill-rule: nonzero; opacity: 1;" transform=" matrix(1 0 0 1 0 0) " stroke-linecap="round" />
	<path d="M 28 53.898 H 17.06 c -1.893 0 -3.428 -1.535 -3.428 -3.428 V 39.53 c 0 -1.893 1.535 -3.428 3.428 -3.428 H 28 c 1.893 0 3.428 1.535 3.428 3.428 v 10.94 C 31.428 52.363 29.893 53.898 28 53.898 z" style="stroke: none; stroke-width: 1; stroke-dasharray: none; stroke-linecap: butt; stroke-linejoin: miter; stroke-miterlimit: 10; fill: rgb(0,0,0); fill-rule: nonzero; opacity: 1;" transform=" matrix(1 0 0 1 0 0) " stroke-linecap="round" />
	<path d="M 68.266 25.488 h -10.94 c -1.893 0 -3.428 -1.535 -3.428 -3.428 v -10.94 c 0 -1.893 1.535 -3.428 3.428 -3.428 h 10.94 c 1.893 0 3.428 1.535 3.428 3.428 v 10.94 C 71.693 23.954 70.159 25.488 68.266 25.488 z" style="stroke: none; stroke-width: 1; stroke-dasharray: none; stroke-linecap: butt; stroke-linejoin: miter; stroke-miterlimit: 10; fill: rgb(0,0,0); fill-rule: nonzero; opacity: 1;" transform=" matrix(1 0 0 1 0 0) " stroke-linecap="round" />
</g>
</svg>