<svg width="178" height="18" viewBox="0 0 178 18" fill="none" xmlns="http://www.w3.org/2000/svg">
<path d="M4.37168 10.7609H10.9051V7.23913H4.37168V3.52174H12.357V0H0.5V17.6087H4.37168V10.7609Z" fill="#151515"/>
<path d="M13.6832 11.0054V17.6087H17.3129V11.0054C17.3129 8.97554 18.9342 7.33696 20.9426 7.33696V4.01087H20.4586C16.4418 4.01087 13.6832 7.1413 13.6832 11.0054Z" fill="#151515"/>
<path d="M29.0574 4.01087C25.0406 4.01087 21.798 7.1413 21.798 11.0054C21.798 14.8696 25.0406 18 29.0574 18C32.2516 18 34.9618 16.019 35.9297 13.2554H31.9128C31.2595 14.1114 30.2189 14.6739 29.0574 14.6739C27.4846 14.6739 26.1779 13.6712 25.6455 12.2772H36.1959C36.2685 11.8614 36.3169 11.4457 36.3169 11.0054C36.3169 7.1413 33.0743 4.01087 29.0574 4.01087ZM25.6455 9.7337C26.1779 8.33967 27.4846 7.33696 29.0574 7.33696C30.6061 7.33696 31.937 8.33967 32.4694 9.7337H25.6455Z" fill="#151515"/>
<path d="M44.2453 9.83152C42.8418 9.66033 41.2447 9.04891 41.2447 8.2663C41.2447 7.38587 41.9949 7.09239 42.7934 7.09239C43.5919 7.09239 44.3421 7.38587 44.3421 8.51087H47.9718C47.9718 5.67391 45.6004 4.01087 42.7934 4.01087C39.9864 4.01087 37.615 5.67391 37.615 8.36413C37.615 10.4429 40.059 12.0082 42.5998 12.3261C43.6887 12.4728 44.4873 13.0353 44.4873 13.6467C44.4873 14.5027 43.5919 14.9185 42.7934 14.9185C41.9949 14.9185 41.0995 14.625 41.0995 13.5H37.4698C37.4698 16.337 39.9864 18 42.7934 18C45.6004 18 48.117 16.337 48.117 13.5C48.117 11.2745 46.1569 10.0516 44.2453 9.83152Z" fill="#151515"/>
<path d="M56.7821 4.01087C55.5722 4.01087 54.4833 4.45109 53.6364 5.18478V0H50.0067V17.6087H53.6364V10.981C53.6364 8.97554 54.7737 7.33696 56.7821 7.33696C58.7906 7.33696 59.9279 8.97554 59.9279 11.0054V17.6087H63.5576V11.0054C63.5576 7.1413 60.799 4.01087 56.7821 4.01087Z" fill="#151515"/>
<path d="M72.5175 4.01087C68.5006 4.01087 65.742 7.1413 65.742 11.0054V17.6087H69.3717V11.0054C69.3717 8.97554 70.509 7.33696 72.5175 7.33696C74.5259 7.33696 75.6632 8.97554 75.6632 11.0054V17.6087H79.2929V11.0054C79.2929 7.1413 76.5343 4.01087 72.5175 4.01087Z" fill="#151515"/>
<path d="M88.1346 4.01087C84.1178 4.01087 80.8752 7.1413 80.8752 11.0054C80.8752 14.8696 84.1178 18 88.1346 18C91.3288 18 94.039 16.019 95.0069 13.2554H90.99C90.3367 14.1114 89.2962 14.6739 88.1346 14.6739C86.5618 14.6739 85.2551 13.6712 84.7227 12.2772H95.2731C95.3457 11.8614 95.3941 11.4457 95.3941 11.0054C95.3941 7.1413 92.1515 4.01087 88.1346 4.01087ZM84.7227 9.7337C85.2551 8.33967 86.5618 7.33696 88.1346 7.33696C89.6833 7.33696 91.0142 8.33967 91.5466 9.7337H84.7227Z" fill="#151515"/>
<path d="M103.322 9.83152C101.919 9.66033 100.322 9.04891 100.322 8.2663C100.322 7.38587 101.072 7.09239 101.871 7.09239C102.669 7.09239 103.419 7.38587 103.419 8.51087H107.049C107.049 5.67391 104.678 4.01087 101.871 4.01087C99.0636 4.01087 96.6922 5.67391 96.6922 8.36413C96.6922 10.4429 99.1362 12.0082 101.677 12.3261C102.766 12.4728 103.564 13.0353 103.564 13.6467C103.564 14.5027 102.669 14.9185 101.871 14.9185C101.072 14.9185 100.177 14.625 100.177 13.5H96.547C96.547 16.337 99.0636 18 101.871 18C104.678 18 107.194 16.337 107.194 13.5C107.194 11.2745 105.234 10.0516 103.322 9.83152Z" fill="#151515"/>
<path d="M115.617 4.01087C111.6 4.01087 108.358 7.1413 108.358 11.0054C108.358 14.8696 111.6 18 115.617 18C118.811 18 121.522 16.019 122.49 13.2554H118.473C117.819 14.1114 116.779 14.6739 115.617 14.6739C114.044 14.6739 112.738 13.6712 112.205 12.2772H122.756C122.828 11.8614 122.877 11.4457 122.877 11.0054C122.877 7.1413 119.634 4.01087 115.617 4.01087ZM112.205 9.7337C112.738 8.33967 114.044 7.33696 115.617 7.33696C117.166 7.33696 118.497 8.33967 119.029 9.7337H112.205Z" fill="#151515"/>
<path d="M131.096 7.33696C132.499 7.33696 133.685 8.11957 134.314 9.29348H138.137C137.339 6.26087 134.483 4.01087 131.096 4.01087C127.079 4.01087 123.836 7.1413 123.836 11.0054C123.836 14.8696 127.079 18 131.096 18C134.459 18 137.266 15.7989 138.089 12.8152H134.193C133.588 13.9158 132.451 14.6739 131.096 14.6739C129.087 14.6739 127.466 13.0353 127.466 11.0054C127.466 8.97554 129.087 7.33696 131.096 7.33696Z" fill="#151515"/>
<path d="M153.429 11.0054C153.429 7.1413 150.211 4.01087 146.218 4.01087C142.226 4.01087 139.007 7.1413 139.007 11.0054C139.007 14.8696 142.226 18 146.218 18C150.211 18 153.429 14.8696 153.429 11.0054ZM149.8 11.0054C149.8 13.0353 148.202 14.6739 146.218 14.6739C144.234 14.6739 142.637 13.0353 142.637 11.0054C142.637 8.97554 144.234 7.33696 146.218 7.33696C148.202 7.33696 149.8 8.97554 149.8 11.0054Z" fill="#151515"/>
<path d="M170.967 4.01087C169.079 4.01087 167.385 4.86685 166.248 6.23641C165.111 4.86685 163.417 4.01087 161.529 4.01087C157.512 4.01087 154.996 7.1413 154.996 11.0054V17.6087H158.626V11.0054C158.626 8.97554 159.521 7.33696 161.529 7.33696C163.538 7.33696 164.433 8.97554 164.433 11.0054V17.6087H168.063V11.0054C168.063 8.97554 168.958 7.33696 170.967 7.33696C172.975 7.33696 173.87 8.97554 173.87 11.0054V17.6087H177.5V11.0054C177.5 7.1413 174.983 4.01087 170.967 4.01087Z" fill="#151515"/>
</svg>
