<svg width="12" height="10" viewBox="0 0 12 10" fill="none" xmlns="http://www.w3.org/2000/svg">
<g id="Layer">
<path id="Vector" fill-rule="evenodd" clip-rule="evenodd" d="M6.65559 1.44502C7.13297 0.967627 7.78045 0.699432 8.45559 0.699432C9.13072 0.699432 9.7782 0.967627 10.2556 1.44502C10.733 1.92241 11.0012 2.56988 11.0012 3.24502C11.0012 3.92015 10.733 4.56763 10.2556 5.04502L9.60059 5.70001L6.00059 9.30001L2.40058 5.70001L1.74558 5.04502C1.26819 4.56763 1 3.92015 1 3.24502C1 2.56988 1.26819 1.92241 1.74558 1.44502C2.22297 0.967627 2.87045 0.699432 3.54558 0.699432C4.22072 0.699432 4.86819 0.967627 5.34558 1.44502L6.00059 2.10002L6.65559 1.44502Z" stroke="#E6704B" stroke-linecap="round" stroke-linejoin="bevel"/>
</g>
</svg>
