<svg width="12" height="12" viewBox="0 0 12 12" fill="none" xmlns="http://www.w3.org/2000/svg">
<path fill-rule="evenodd" clip-rule="evenodd" d="M6.65559 2.44502C7.13297 1.96763 7.78045 1.69943 8.45559 1.69943C9.13072 1.69943 9.7782 1.96763 10.2556 2.44502C10.733 2.92241 11.0012 3.56988 11.0012 4.24502C11.0012 4.92015 10.733 5.56763 10.2556 6.04502L9.60059 6.70001L6.00059 10.3L2.40058 6.70001L1.74558 6.04502C1.26819 5.56763 1 4.92015 1 4.24502C1 3.56988 1.26819 2.92241 1.74558 2.44502C2.22297 1.96763 2.87045 1.69943 3.54558 1.69943C4.22072 1.69943 4.86819 1.96763 5.34558 2.44502L6.00059 3.10002L6.65559 2.44502Z" stroke="#E6704B" stroke-linecap="round" stroke-linejoin="bevel"/>
</svg>
